<mxfile host="app.diagrams.net" modified="2021-11-07T04:25:08.112Z" agent="5.0 (Windows NT 10.0; Win64; x64) AppleWebKit/537.36 (KHTML, like Gecko) Chrome/95.0.4638.69 Safari/537.36" etag="wv__EsgCBBQtOOM736N6" version="15.7.0" type="github">
  <diagram name="Page-1" id="e3a06f82-3646-2815-327d-82caf3d4e204">
    <mxGraphModel dx="1447" dy="2059" grid="1" gridSize="10" guides="1" tooltips="1" connect="1" arrows="1" fold="1" page="1" pageScale="1.5" pageWidth="1169" pageHeight="826" background="none" math="0" shadow="0">
      <root>
        <mxCell id="0" style=";html=1;" />
        <mxCell id="1" style=";html=1;" parent="0" />
        <mxCell id="0MGRcDcHZkK6c_3Ek1oS-6" value="&lt;span style=&quot;font-size: 20px&quot;&gt;&lt;b&gt;Web.Clients Apps&lt;/b&gt;&lt;/span&gt;" style="whiteSpace=wrap;html=1;fillColor=#dae8fc;fontSize=14;strokeColor=none;verticalAlign=top;" vertex="1" parent="1">
          <mxGeometry x="171.57" y="220" width="310" height="500" as="geometry" />
        </mxCell>
        <mxCell id="0MGRcDcHZkK6c_3Ek1oS-13" style="edgeStyle=orthogonalEdgeStyle;rounded=0;orthogonalLoop=1;jettySize=auto;html=1;exitX=0.75;exitY=0;exitDx=0;exitDy=0;" edge="1" parent="1" source="6a7d8f32e03d9370-58">
          <mxGeometry relative="1" as="geometry">
            <mxPoint x="410" y="850" as="targetPoint" />
          </mxGeometry>
        </mxCell>
        <mxCell id="6a7d8f32e03d9370-58" value="&lt;b&gt;&lt;font style=&quot;font-size: 15px&quot;&gt;Mobile.Clients.Apps&lt;/font&gt;&lt;/b&gt;" style="whiteSpace=wrap;html=1;fillColor=#dae8fc;fontSize=14;strokeColor=none;verticalAlign=top;" parent="1" vertex="1">
          <mxGeometry x="177" y="740" width="310" height="318" as="geometry" />
        </mxCell>
        <object label="&lt;b&gt;&lt;font style=&quot;font-size: 25px&quot;&gt;API.Gateways&lt;/font&gt;&lt;/b&gt;" id="6a7d8f32e03d9370-57">
          <mxCell style="whiteSpace=wrap;html=1;fillColor=#fff2cc;fontSize=14;strokeColor=#d6b656;verticalAlign=top;" parent="1" vertex="1">
            <mxGeometry x="569" y="220" width="308" height="680" as="geometry" />
          </mxCell>
        </object>
        <mxCell id="6a7d8f32e03d9370-33" style="edgeStyle=none;rounded=0;html=1;startSize=10;endSize=10;jettySize=auto;orthogonalLoop=1;fontSize=14;endArrow=none;endFill=0;strokeWidth=2;" parent="1" source="6a7d8f32e03d9370-4" target="6a7d8f32e03d9370-11" edge="1">
          <mxGeometry relative="1" as="geometry" />
        </mxCell>
        <mxCell id="6a7d8f32e03d9370-4" value="Client" style="verticalLabelPosition=bottom;aspect=fixed;html=1;verticalAlign=top;strokeColor=none;shape=mxgraph.citrix.desktop;fillColor=#66B2FF;gradientColor=#0066CC;fontSize=14;" parent="1" vertex="1">
          <mxGeometry x="278.49999999999994" y="431" width="89" height="98" as="geometry" />
        </mxCell>
        <mxCell id="6a7d8f32e03d9370-32" style="edgeStyle=none;rounded=0;html=1;startSize=10;endSize=10;jettySize=auto;orthogonalLoop=1;fontSize=14;endArrow=none;endFill=0;strokeWidth=2;" parent="1" source="6a7d8f32e03d9370-5" target="6a7d8f32e03d9370-12" edge="1">
          <mxGeometry relative="1" as="geometry" />
        </mxCell>
        <mxCell id="6a7d8f32e03d9370-5" value="Client" style="verticalLabelPosition=bottom;aspect=fixed;html=1;verticalAlign=top;strokeColor=none;shape=mxgraph.citrix.desktop;fillColor=#66B2FF;gradientColor=#0066CC;fontSize=14;" parent="1" vertex="1">
          <mxGeometry x="275.75000000000006" y="260.00000000000006" width="89" height="98" as="geometry" />
        </mxCell>
        <mxCell id="6a7d8f32e03d9370-6" value="Client" style="verticalLabelPosition=bottom;aspect=fixed;html=1;verticalAlign=top;strokeColor=none;shape=mxgraph.citrix.pda;fillColor=#66B2FF;gradientColor=#0066CC;fontSize=14;" parent="1" vertex="1">
          <mxGeometry x="281.25" y="814.11" width="83.5" height="169.78" as="geometry" />
        </mxCell>
        <mxCell id="6a7d8f32e03d9370-39" style="edgeStyle=none;rounded=0;html=1;startSize=10;endSize=10;jettySize=auto;orthogonalLoop=1;fontSize=14;endArrow=none;endFill=0;strokeWidth=2;entryX=1.003;entryY=0.119;entryDx=0;entryDy=0;entryPerimeter=0;exitX=0.079;exitY=0.775;exitDx=0;exitDy=0;exitPerimeter=0;" parent="1" source="6a7d8f32e03d9370-8" target="6a7d8f32e03d9370-58" edge="1">
          <mxGeometry relative="1" as="geometry">
            <mxPoint x="777.7807692307692" y="813" as="targetPoint" />
          </mxGeometry>
        </mxCell>
        <mxCell id="6a7d8f32e03d9370-8" value="" style="verticalLabelPosition=bottom;aspect=fixed;html=1;verticalAlign=top;strokeColor=none;shape=mxgraph.citrix.xenapp_server;fillColor=#66B2FF;gradientColor=#0066CC;fontSize=14;" parent="1" vertex="1">
          <mxGeometry x="679.9999999999999" y="620" width="76" height="89" as="geometry" />
        </mxCell>
        <mxCell id="6a7d8f32e03d9370-42" style="edgeStyle=none;rounded=0;html=1;startSize=10;endSize=10;jettySize=auto;orthogonalLoop=1;fontSize=14;endArrow=none;endFill=0;strokeWidth=2;exitX=0.671;exitY=0.618;exitDx=0;exitDy=0;exitPerimeter=0;entryX=0.101;entryY=0.611;entryDx=0;entryDy=0;entryPerimeter=0;" parent="1" source="6a7d8f32e03d9370-11" target="0MGRcDcHZkK6c_3Ek1oS-11" edge="1">
          <mxGeometry relative="1" as="geometry">
            <mxPoint x="1020" y="392.33358098068356" as="targetPoint" />
          </mxGeometry>
        </mxCell>
        <mxCell id="6a7d8f32e03d9370-11" value="" style="verticalLabelPosition=bottom;aspect=fixed;html=1;verticalAlign=top;strokeColor=none;shape=mxgraph.citrix.xenapp_server;fillColor=#66B2FF;gradientColor=#0066CC;fontSize=14;" parent="1" vertex="1">
          <mxGeometry x="682.9999999999999" y="498" width="76" height="89" as="geometry" />
        </mxCell>
        <mxCell id="6a7d8f32e03d9370-43" style="edgeStyle=none;rounded=0;html=1;jettySize=auto;orthogonalLoop=1;fontSize=14;endArrow=none;endFill=0;strokeWidth=2;exitX=0.988;exitY=0.493;exitDx=0;exitDy=0;exitPerimeter=0;" parent="1" source="6a7d8f32e03d9370-15" edge="1">
          <mxGeometry relative="1" as="geometry">
            <mxPoint x="730" y="400" as="sourcePoint" />
            <mxPoint x="1020" y="200" as="targetPoint" />
          </mxGeometry>
        </mxCell>
        <mxCell id="6a7d8f32e03d9370-12" value="" style="verticalLabelPosition=bottom;aspect=fixed;html=1;verticalAlign=top;strokeColor=none;shape=mxgraph.citrix.xenapp_server;fillColor=#66B2FF;gradientColor=#0066CC;fontSize=14;" parent="1" vertex="1">
          <mxGeometry x="680.0000000000001" y="370" width="76" height="89" as="geometry" />
        </mxCell>
        <mxCell id="6a7d8f32e03d9370-13" value="" style="verticalLabelPosition=bottom;aspect=fixed;html=1;verticalAlign=top;strokeColor=none;shape=mxgraph.citrix.router;fillColor=#66B2FF;gradientColor=#0066CC;fontSize=14;" parent="1" vertex="1">
          <mxGeometry x="1240" y="437.62" width="85.14" height="56.5" as="geometry" />
        </mxCell>
        <mxCell id="6a7d8f32e03d9370-15" value="&lt;b&gt;&lt;font style=&quot;font-size: 17px&quot;&gt;Authentication.Web Client&lt;br&gt;&lt;br&gt;&lt;/font&gt;&lt;/b&gt;" style="verticalLabelPosition=top;aspect=fixed;html=1;verticalAlign=bottom;strokeColor=none;shape=mxgraph.citrix.cache_server;fillColor=#66B2FF;gradientColor=#0066CC;fontSize=14;labelPosition=center;align=center;" parent="1" vertex="1">
          <mxGeometry x="293.75" y="60" width="71" height="97.5" as="geometry" />
        </mxCell>
        <mxCell id="6a7d8f32e03d9370-44" style="edgeStyle=none;rounded=0;html=1;startSize=10;endSize=10;jettySize=auto;orthogonalLoop=1;fontSize=14;endArrow=none;endFill=0;strokeWidth=2;exitX=0.73;exitY=0.558;exitDx=0;exitDy=0;exitPerimeter=0;" parent="1" source="0MGRcDcHZkK6c_3Ek1oS-9" target="6a7d8f32e03d9370-13" edge="1">
          <mxGeometry relative="1" as="geometry">
            <mxPoint x="1075" y="205.93418734036868" as="sourcePoint" />
          </mxGeometry>
        </mxCell>
        <mxCell id="6a7d8f32e03d9370-45" style="edgeStyle=none;rounded=0;html=1;startSize=10;endSize=10;jettySize=auto;orthogonalLoop=1;fontSize=14;endArrow=none;endFill=0;strokeWidth=2;exitX=0.573;exitY=0.54;exitDx=0;exitDy=0;exitPerimeter=0;" parent="1" source="0MGRcDcHZkK6c_3Ek1oS-11" target="6a7d8f32e03d9370-13" edge="1">
          <mxGeometry relative="1" as="geometry">
            <mxPoint x="1095" y="379.2788051209104" as="sourcePoint" />
          </mxGeometry>
        </mxCell>
        <mxCell id="6a7d8f32e03d9370-47" style="edgeStyle=none;rounded=0;html=1;startSize=10;endSize=10;jettySize=auto;orthogonalLoop=1;fontSize=14;endArrow=none;endFill=0;strokeWidth=2;exitX=0.787;exitY=0.493;exitDx=0;exitDy=0;exitPerimeter=0;" parent="1" source="0MGRcDcHZkK6c_3Ek1oS-10" target="6a7d8f32e03d9370-13" edge="1">
          <mxGeometry relative="1" as="geometry">
            <mxPoint x="1108.025" y="581.0129999999999" as="sourcePoint" />
          </mxGeometry>
        </mxCell>
        <mxCell id="6a7d8f32e03d9370-62" value="Citrix Network Architecture" style="text;strokeColor=none;fillColor=none;html=1;fontSize=24;fontStyle=1;verticalAlign=middle;align=center;" parent="1" vertex="1">
          <mxGeometry x="481.57" y="-90" width="861" height="40" as="geometry" />
        </mxCell>
        <mxCell id="0MGRcDcHZkK6c_3Ek1oS-1" value="" style="shape=image;verticalLabelPosition=bottom;verticalAlign=top;imageAspect=0;aspect=fixed;image=data:image/svg+xml,PHN2ZyB4bWxuczpkYz0iaHR0cDovL3B1cmwub3JnL2RjL2VsZW1lbnRzLzEuMS8iIHhtbG5zOmNjPSJodHRwOi8vY3JlYXRpdmVjb21tb25zLm9yZy9ucyMiIHhtbG5zOnJkZj0iaHR0cDovL3d3dy53My5vcmcvMTk5OS8wMi8yMi1yZGYtc3ludGF4LW5zIyIgeG1sbnM6c3ZnPSJodHRwOi8vd3d3LnczLm9yZy8yMDAwL3N2ZyIgeG1sbnM9Imh0dHA6Ly93d3cudzMub3JnLzIwMDAvc3ZnIiB4bWxuczpzb2RpcG9kaT0iaHR0cDovL3NvZGlwb2RpLnNvdXJjZWZvcmdlLm5ldC9EVEQvc29kaXBvZGktMC5kdGQiIHhtbG5zOmlua3NjYXBlPSJodHRwOi8vd3d3Lmlua3NjYXBlLm9yZy9uYW1lc3BhY2VzL2lua3NjYXBlIiB2aWV3Qm94PSItMC41IDAuNSA1MCA1MCIgY2xhc3M9ImZ4cy1wb3J0YWwtc3ZnIiByb2xlPSJwcmVzZW50YXRpb24iIGZvY3VzYWJsZT0iZmFsc2UiIGlkPSJGeFN5bWJvbDAtMGVhIiB2ZXJzaW9uPSIxLjEiIHNvZGlwb2RpOmRvY25hbWU9IlNRTCBEYXRhYmFzZXMuc3ZnIiBpbmtzY2FwZTp2ZXJzaW9uPSIwLjkyLjMgKDI0MDU1NDYsIDIwMTgtMDMtMTEpIj4mI3hhOyAgPG1ldGFkYXRhIGlkPSJtZXRhZGF0YTUxNTAiPiYjeGE7ICAgIDxyZGY6UkRGPiYjeGE7ICAgICAgPGNjOldvcmsgcmRmOmFib3V0PSIiPiYjeGE7ICAgICAgICA8ZGM6Zm9ybWF0PmltYWdlL3N2Zyt4bWw8L2RjOmZvcm1hdD4mI3hhOyAgICAgICAgPGRjOnR5cGUgcmRmOnJlc291cmNlPSJodHRwOi8vcHVybC5vcmcvZGMvZGNtaXR5cGUvU3RpbGxJbWFnZSIvPiYjeGE7ICAgICAgICA8ZGM6dGl0bGUvPiYjeGE7ICAgICAgPC9jYzpXb3JrPiYjeGE7ICAgIDwvcmRmOlJERj4mI3hhOyAgPC9tZXRhZGF0YT4mI3hhOyAgPGRlZnMgaWQ9ImRlZnM1MTQ4Ii8+JiN4YTsgIDxzb2RpcG9kaTpuYW1lZHZpZXcgcGFnZWNvbG9yPSIjZmZmZmZmIiBib3JkZXJjb2xvcj0iIzY2NjY2NiIgYm9yZGVyb3BhY2l0eT0iMSIgb2JqZWN0dG9sZXJhbmNlPSIxMCIgZ3JpZHRvbGVyYW5jZT0iMTAiIGd1aWRldG9sZXJhbmNlPSIxMCIgaW5rc2NhcGU6cGFnZW9wYWNpdHk9IjAiIGlua3NjYXBlOnBhZ2VzaGFkb3c9IjIiIGlua3NjYXBlOndpbmRvdy13aWR0aD0iNjQwIiBpbmtzY2FwZTp3aW5kb3ctaGVpZ2h0PSI0ODAiIGlkPSJuYW1lZHZpZXc1MTQ2IiBzaG93Z3JpZD0iZmFsc2UiIGlua3NjYXBlOnpvb209IjYuMjYiIGlua3NjYXBlOmN4PSIyNSIgaW5rc2NhcGU6Y3k9IjI1IiBpbmtzY2FwZTp3aW5kb3cteD0iMCIgaW5rc2NhcGU6d2luZG93LXk9IjAiIGlua3NjYXBlOndpbmRvdy1tYXhpbWl6ZWQ9IjEiIGlua3NjYXBlOmN1cnJlbnQtbGF5ZXI9IkZ4U3ltYm9sMC0wZWEiLz4mI3hhOyAgPGcgaWQ9Imc1MTQzIj4mI3hhOyAgICA8dGl0bGUgaWQ9InRpdGxlNTEyNyIvPiYjeGE7ICAgIDxwYXRoIGQ9Ik01Ljc1NyA3LjI4OHYzNi4xMTFjMCAzLjc0OSA4LjM5MiA2Ljc4OSAxOC43NDMgNi43ODl2LTQyLjlINS43NTd6IiBjbGFzcz0ibXNwb3J0YWxmeC1zdmctYzE5IiBmaWxsPSIjMDA3MmM2IiBpZD0icGF0aDUxMjkiLz4mI3hhOyAgICA8cGF0aCBkPSJNMjQuMjQzIDUwLjE4N2guMjU3YzEwLjM1MSAwIDE4Ljc0My0zLjAzOCAxOC43NDMtNi43ODhWNy4yODhoLTE5djQyLjg5OXoiIGNsYXNzPSJtc3BvcnRhbGZ4LXN2Zy1jMTkiIGZpbGw9IiMwMDcyYzYiIGlkPSJwYXRoNTEzMSIvPiYjeGE7ICAgIDxwYXRoIG9wYWNpdHk9Ii4xNSIgZD0iTTI0LjI0MyA1MC4xODdoLjI1N2MxMC4zNTEgMCAxOC43NDMtMy4wMzggMTguNzQzLTYuNzg4VjcuMjg4aC0xOXY0Mi44OTl6IiBjbGFzcz0ibXNwb3J0YWxmeC1zdmctYzAxIiBmaWxsPSIjZmZmZmZmIiBpZD0icGF0aDUxMzMiLz4mI3hhOyAgICA8cGF0aCBkPSJNNDMuMjQzIDcuMjg4YzAgMy43NDktOC4zOTIgNi43ODgtMTguNzQzIDYuNzg4UzUuNzU3IDExLjAzNyA1Ljc1NyA3LjI4OCAxNC4xNDkuNSAyNC41LjVzMTguNzQzIDMuMDM5IDE4Ljc0MyA2Ljc4OCIgY2xhc3M9Im1zcG9ydGFsZngtc3ZnLWMwMSIgZmlsbD0iI2ZmZmZmZiIgaWQ9InBhdGg1MTM1Ii8+JiN4YTsgICAgPHBhdGggZD0iTTM5LjQxMSA2Ljg5N2MwIDIuNDc1LTYuNjc2IDQuNDc5LTE0LjkxMSA0LjQ3OVM5LjU4OCA5LjM3MiA5LjU4OCA2Ljg5N2MwLTIuNDc0IDYuNjc3LTQuNDc5IDE0LjkxMi00LjQ3OXMxNC45MTEgMi4wMDUgMTQuOTExIDQuNDc5IiBjbGFzcz0ibXNwb3J0YWxmeC1zdmctYzE0IiBmaWxsPSIjN2ZiYTAwIiBpZD0icGF0aDUxMzciLz4mI3hhOyAgICA8cGF0aCBkPSJNMzYuMjg3IDkuNjM0YzEuOTUyLS43NTcgMy4xMjUtMS43MDUgMy4xMjUtMi43MzUgMC0yLjQ3NS02LjY3Ni00LjQ4LTE0LjkxMi00LjQ4LTguMjM1IDAtMTQuOTExIDIuMDA1LTE0LjkxMSA0LjQ4IDAgMS4wMyAxLjE3MyAxLjk3OCAzLjEyNSAyLjczNUMxNS40NCA4LjU3NiAxOS43IDcuODkzIDI0LjUgNy44OTNjNC44MDEgMCA5LjA1OS42ODMgMTEuNzg3IDEuNzQxIiBjbGFzcz0ibXNwb3J0YWxmeC1zdmctYzEzIiBmaWxsPSIjYjhkNDMyIiBpZD0icGF0aDUxMzkiLz4mI3hhOyAgICA8cGF0aCBkPSJNMTguNTQ3IDMyLjM1NGMwIDEuMTIyLS40MDcgMS45OTEtMS4yMjEgMi42MDctLjgxNC42MTYtMS45MzguOTI0LTMuMzczLjkyNC0xLjIyMSAwLTIuMjQxLS4yMi0zLjA2MS0uNjZ2LTIuNjRjLjk0Ni44MDMgMS45ODggMS4yMDUgMy4xMjYgMS4yMDUuNTUgMCAuOTc1LS4xMSAxLjI3NS0uMzNzLjQ1LS41MTEuNDUtLjg3NWMwLS4zNTctLjE0NC0uNjY4LS40MzMtLjkzMnMtLjg3Ni0uNjA1LTEuNzYxLTEuMDIzYy0xLjgwNC0uODQ2LTIuNzA2LTIuMDAyLTIuNzA2LTMuNDY0IDAtMS4wNjEuMzkzLTEuOTEyIDEuMTgtMi41NTMuNzg2LS42NCAxLjgzMS0uOTYxIDMuMTM0LS45NjEgMS4xNTUgMCAyLjExMS4xNTIgMi44NzEuNDU0djIuNDY2Yy0uNzk3LS41NS0xLjcwNS0uODI1LTIuNzIyLS44MjUtLjUxMSAwLS45MTUuMTA4LTEuMjEyLjMyNWExLjAyNiAxLjAyNiAwIDAgMC0uNDQ1Ljg3YzAgLjM3NC4xMTkuNjgxLjM1OS45Mi4yMzkuMjM5LjczLjUzNSAxLjQ3Mi44ODcgMS4xMDYuNTIzIDEuODkzIDEuMDUzIDIuMzY0IDEuNTkyLjQ2OC41NC43MDMgMS4yMTEuNzAzIDIuMDEzem0xMi43MjctMi42NzJjMCAxLjM5MS0uMzE3IDIuNTk5LS45NDkgMy42MjEtLjYzMyAxLjAyMy0xLjUyMyAxLjc0LTIuNjcyIDIuMTUzbDMuNDMxIDMuMTc2SDI3LjYybC0yLjQ1LTIuNzQ3Yy0xLjA1LS4wMzgtMS45OTgtLjMxNi0yLjg0Mi0uODMzLS44NDQtLjUxNi0xLjQ5Ni0xLjIyNS0xLjk1NS0yLjEyNHMtLjY4OS0xLjkwMi0uNjg5LTMuMDA3YzAtMS4yMjYuMjQ5LTIuMzE5Ljc0Ni0zLjI3OS40OTgtLjk2IDEuMTk3LTEuNjk4IDIuMDk5LTIuMjE1LjkwMi0uNTE2IDEuOTM1LS43NzUgMy4xMDItLjc3NSAxLjA4OCAwIDIuMDYzLjI1IDIuOTI0Ljc1MS44Ni41IDEuNTI4IDEuMjEyIDIuMDA0IDIuMTM2LjQ3Ny45MjQuNzE1IDEuOTcyLjcxNSAzLjE0M3ptLTIuODA0LjE0OWMwLTEuMTk5LS4yNjEtMi4xNDYtLjc4NC0yLjg0MnMtMS4yMzctMS4wNDQtMi4xNDUtMS4wNDRjLS45MjQgMC0xLjY2My4zNDktMi4yMTkgMS4wNDctLjU1NS42OTktLjgzMyAxLjYyOC0uODMzIDIuNzg4IDAgMS4xNTUuMjcyIDIuMDc3LjgxNiAyLjc2Ny41NDUuNjkgMS4yNjcgMS4wMzUgMi4xNjkgMS4wMzUuOTE5IDAgMS42NDctLjMzNCAyLjE4Ni0xLjAwMi41NC0uNjY3LjgxLTEuNTg0LjgxLTIuNzQ5em0xMS44MDMgNS44NDhoLTcuMDQ0VjIzLjg1MWgyLjY2NHY5LjY2N2g0LjM4eiIgY2xhc3M9Im1zcG9ydGFsZngtc3ZnLWMwMSIgZmlsbD0iI2ZmZmZmZiIgaWQ9InBhdGg1MTQxIi8+JiN4YTsgIDwvZz4mI3hhOzwvc3ZnPg==" vertex="1" parent="1">
          <mxGeometry x="1109" y="470" width="50" height="50" as="geometry" />
        </mxCell>
        <mxCell id="0MGRcDcHZkK6c_3Ek1oS-2" value="" style="shape=image;verticalLabelPosition=bottom;verticalAlign=top;imageAspect=0;aspect=fixed;image=data:image/svg+xml,PHN2ZyB4bWxuczpkYz0iaHR0cDovL3B1cmwub3JnL2RjL2VsZW1lbnRzLzEuMS8iIHhtbG5zOmNjPSJodHRwOi8vY3JlYXRpdmVjb21tb25zLm9yZy9ucyMiIHhtbG5zOnJkZj0iaHR0cDovL3d3dy53My5vcmcvMTk5OS8wMi8yMi1yZGYtc3ludGF4LW5zIyIgeG1sbnM6c3ZnPSJodHRwOi8vd3d3LnczLm9yZy8yMDAwL3N2ZyIgeG1sbnM9Imh0dHA6Ly93d3cudzMub3JnLzIwMDAvc3ZnIiB4bWxuczpzb2RpcG9kaT0iaHR0cDovL3NvZGlwb2RpLnNvdXJjZWZvcmdlLm5ldC9EVEQvc29kaXBvZGktMC5kdGQiIHhtbG5zOmlua3NjYXBlPSJodHRwOi8vd3d3Lmlua3NjYXBlLm9yZy9uYW1lc3BhY2VzL2lua3NjYXBlIiB2aWV3Qm94PSItMC41IDAuNSA1MCA1MCIgY2xhc3M9ImZ4cy1wb3J0YWwtc3ZnIiByb2xlPSJwcmVzZW50YXRpb24iIGZvY3VzYWJsZT0iZmFsc2UiIGlkPSJGeFN5bWJvbDAtMGVhIiB2ZXJzaW9uPSIxLjEiIHNvZGlwb2RpOmRvY25hbWU9IlNRTCBEYXRhYmFzZXMuc3ZnIiBpbmtzY2FwZTp2ZXJzaW9uPSIwLjkyLjMgKDI0MDU1NDYsIDIwMTgtMDMtMTEpIj4mI3hhOyAgPG1ldGFkYXRhIGlkPSJtZXRhZGF0YTUxNTAiPiYjeGE7ICAgIDxyZGY6UkRGPiYjeGE7ICAgICAgPGNjOldvcmsgcmRmOmFib3V0PSIiPiYjeGE7ICAgICAgICA8ZGM6Zm9ybWF0PmltYWdlL3N2Zyt4bWw8L2RjOmZvcm1hdD4mI3hhOyAgICAgICAgPGRjOnR5cGUgcmRmOnJlc291cmNlPSJodHRwOi8vcHVybC5vcmcvZGMvZGNtaXR5cGUvU3RpbGxJbWFnZSIvPiYjeGE7ICAgICAgICA8ZGM6dGl0bGUvPiYjeGE7ICAgICAgPC9jYzpXb3JrPiYjeGE7ICAgIDwvcmRmOlJERj4mI3hhOyAgPC9tZXRhZGF0YT4mI3hhOyAgPGRlZnMgaWQ9ImRlZnM1MTQ4Ii8+JiN4YTsgIDxzb2RpcG9kaTpuYW1lZHZpZXcgcGFnZWNvbG9yPSIjZmZmZmZmIiBib3JkZXJjb2xvcj0iIzY2NjY2NiIgYm9yZGVyb3BhY2l0eT0iMSIgb2JqZWN0dG9sZXJhbmNlPSIxMCIgZ3JpZHRvbGVyYW5jZT0iMTAiIGd1aWRldG9sZXJhbmNlPSIxMCIgaW5rc2NhcGU6cGFnZW9wYWNpdHk9IjAiIGlua3NjYXBlOnBhZ2VzaGFkb3c9IjIiIGlua3NjYXBlOndpbmRvdy13aWR0aD0iNjQwIiBpbmtzY2FwZTp3aW5kb3ctaGVpZ2h0PSI0ODAiIGlkPSJuYW1lZHZpZXc1MTQ2IiBzaG93Z3JpZD0iZmFsc2UiIGlua3NjYXBlOnpvb209IjYuMjYiIGlua3NjYXBlOmN4PSIyNSIgaW5rc2NhcGU6Y3k9IjI1IiBpbmtzY2FwZTp3aW5kb3cteD0iMCIgaW5rc2NhcGU6d2luZG93LXk9IjAiIGlua3NjYXBlOndpbmRvdy1tYXhpbWl6ZWQ9IjEiIGlua3NjYXBlOmN1cnJlbnQtbGF5ZXI9IkZ4U3ltYm9sMC0wZWEiLz4mI3hhOyAgPGcgaWQ9Imc1MTQzIj4mI3hhOyAgICA8dGl0bGUgaWQ9InRpdGxlNTEyNyIvPiYjeGE7ICAgIDxwYXRoIGQ9Ik01Ljc1NyA3LjI4OHYzNi4xMTFjMCAzLjc0OSA4LjM5MiA2Ljc4OSAxOC43NDMgNi43ODl2LTQyLjlINS43NTd6IiBjbGFzcz0ibXNwb3J0YWxmeC1zdmctYzE5IiBmaWxsPSIjMDA3MmM2IiBpZD0icGF0aDUxMjkiLz4mI3hhOyAgICA8cGF0aCBkPSJNMjQuMjQzIDUwLjE4N2guMjU3YzEwLjM1MSAwIDE4Ljc0My0zLjAzOCAxOC43NDMtNi43ODhWNy4yODhoLTE5djQyLjg5OXoiIGNsYXNzPSJtc3BvcnRhbGZ4LXN2Zy1jMTkiIGZpbGw9IiMwMDcyYzYiIGlkPSJwYXRoNTEzMSIvPiYjeGE7ICAgIDxwYXRoIG9wYWNpdHk9Ii4xNSIgZD0iTTI0LjI0MyA1MC4xODdoLjI1N2MxMC4zNTEgMCAxOC43NDMtMy4wMzggMTguNzQzLTYuNzg4VjcuMjg4aC0xOXY0Mi44OTl6IiBjbGFzcz0ibXNwb3J0YWxmeC1zdmctYzAxIiBmaWxsPSIjZmZmZmZmIiBpZD0icGF0aDUxMzMiLz4mI3hhOyAgICA8cGF0aCBkPSJNNDMuMjQzIDcuMjg4YzAgMy43NDktOC4zOTIgNi43ODgtMTguNzQzIDYuNzg4UzUuNzU3IDExLjAzNyA1Ljc1NyA3LjI4OCAxNC4xNDkuNSAyNC41LjVzMTguNzQzIDMuMDM5IDE4Ljc0MyA2Ljc4OCIgY2xhc3M9Im1zcG9ydGFsZngtc3ZnLWMwMSIgZmlsbD0iI2ZmZmZmZiIgaWQ9InBhdGg1MTM1Ii8+JiN4YTsgICAgPHBhdGggZD0iTTM5LjQxMSA2Ljg5N2MwIDIuNDc1LTYuNjc2IDQuNDc5LTE0LjkxMSA0LjQ3OVM5LjU4OCA5LjM3MiA5LjU4OCA2Ljg5N2MwLTIuNDc0IDYuNjc3LTQuNDc5IDE0LjkxMi00LjQ3OXMxNC45MTEgMi4wMDUgMTQuOTExIDQuNDc5IiBjbGFzcz0ibXNwb3J0YWxmeC1zdmctYzE0IiBmaWxsPSIjN2ZiYTAwIiBpZD0icGF0aDUxMzciLz4mI3hhOyAgICA8cGF0aCBkPSJNMzYuMjg3IDkuNjM0YzEuOTUyLS43NTcgMy4xMjUtMS43MDUgMy4xMjUtMi43MzUgMC0yLjQ3NS02LjY3Ni00LjQ4LTE0LjkxMi00LjQ4LTguMjM1IDAtMTQuOTExIDIuMDA1LTE0LjkxMSA0LjQ4IDAgMS4wMyAxLjE3MyAxLjk3OCAzLjEyNSAyLjczNUMxNS40NCA4LjU3NiAxOS43IDcuODkzIDI0LjUgNy44OTNjNC44MDEgMCA5LjA1OS42ODMgMTEuNzg3IDEuNzQxIiBjbGFzcz0ibXNwb3J0YWxmeC1zdmctYzEzIiBmaWxsPSIjYjhkNDMyIiBpZD0icGF0aDUxMzkiLz4mI3hhOyAgICA8cGF0aCBkPSJNMTguNTQ3IDMyLjM1NGMwIDEuMTIyLS40MDcgMS45OTEtMS4yMjEgMi42MDctLjgxNC42MTYtMS45MzguOTI0LTMuMzczLjkyNC0xLjIyMSAwLTIuMjQxLS4yMi0zLjA2MS0uNjZ2LTIuNjRjLjk0Ni44MDMgMS45ODggMS4yMDUgMy4xMjYgMS4yMDUuNTUgMCAuOTc1LS4xMSAxLjI3NS0uMzNzLjQ1LS41MTEuNDUtLjg3NWMwLS4zNTctLjE0NC0uNjY4LS40MzMtLjkzMnMtLjg3Ni0uNjA1LTEuNzYxLTEuMDIzYy0xLjgwNC0uODQ2LTIuNzA2LTIuMDAyLTIuNzA2LTMuNDY0IDAtMS4wNjEuMzkzLTEuOTEyIDEuMTgtMi41NTMuNzg2LS42NCAxLjgzMS0uOTYxIDMuMTM0LS45NjEgMS4xNTUgMCAyLjExMS4xNTIgMi44NzEuNDU0djIuNDY2Yy0uNzk3LS41NS0xLjcwNS0uODI1LTIuNzIyLS44MjUtLjUxMSAwLS45MTUuMTA4LTEuMjEyLjMyNWExLjAyNiAxLjAyNiAwIDAgMC0uNDQ1Ljg3YzAgLjM3NC4xMTkuNjgxLjM1OS45Mi4yMzkuMjM5LjczLjUzNSAxLjQ3Mi44ODcgMS4xMDYuNTIzIDEuODkzIDEuMDUzIDIuMzY0IDEuNTkyLjQ2OC41NC43MDMgMS4yMTEuNzAzIDIuMDEzem0xMi43MjctMi42NzJjMCAxLjM5MS0uMzE3IDIuNTk5LS45NDkgMy42MjEtLjYzMyAxLjAyMy0xLjUyMyAxLjc0LTIuNjcyIDIuMTUzbDMuNDMxIDMuMTc2SDI3LjYybC0yLjQ1LTIuNzQ3Yy0xLjA1LS4wMzgtMS45OTgtLjMxNi0yLjg0Mi0uODMzLS44NDQtLjUxNi0xLjQ5Ni0xLjIyNS0xLjk1NS0yLjEyNHMtLjY4OS0xLjkwMi0uNjg5LTMuMDA3YzAtMS4yMjYuMjQ5LTIuMzE5Ljc0Ni0zLjI3OS40OTgtLjk2IDEuMTk3LTEuNjk4IDIuMDk5LTIuMjE1LjkwMi0uNTE2IDEuOTM1LS43NzUgMy4xMDItLjc3NSAxLjA4OCAwIDIuMDYzLjI1IDIuOTI0Ljc1MS44Ni41IDEuNTI4IDEuMjEyIDIuMDA0IDIuMTM2LjQ3Ny45MjQuNzE1IDEuOTcyLjcxNSAzLjE0M3ptLTIuODA0LjE0OWMwLTEuMTk5LS4yNjEtMi4xNDYtLjc4NC0yLjg0MnMtMS4yMzctMS4wNDQtMi4xNDUtMS4wNDRjLS45MjQgMC0xLjY2My4zNDktMi4yMTkgMS4wNDctLjU1NS42OTktLjgzMyAxLjYyOC0uODMzIDIuNzg4IDAgMS4xNTUuMjcyIDIuMDc3LjgxNiAyLjc2Ny41NDUuNjkgMS4yNjcgMS4wMzUgMi4xNjkgMS4wMzUuOTE5IDAgMS42NDctLjMzNCAyLjE4Ni0xLjAwMi41NC0uNjY3LjgxLTEuNTg0LjgxLTIuNzQ5em0xMS44MDMgNS44NDhoLTcuMDQ0VjIzLjg1MWgyLjY2NHY5LjY2N2g0LjM4eiIgY2xhc3M9Im1zcG9ydGFsZngtc3ZnLWMwMSIgZmlsbD0iI2ZmZmZmZiIgaWQ9InBhdGg1MTQxIi8+JiN4YTsgIDwvZz4mI3hhOzwvc3ZnPg==" vertex="1" parent="1">
          <mxGeometry x="1109" y="275.88" width="50" height="50" as="geometry" />
        </mxCell>
        <mxCell id="0MGRcDcHZkK6c_3Ek1oS-8" value="" style="shape=image;verticalLabelPosition=bottom;verticalAlign=top;imageAspect=0;aspect=fixed;image=data:image/svg+xml,PHN2ZyB4bWxuczpkYz0iaHR0cDovL3B1cmwub3JnL2RjL2VsZW1lbnRzLzEuMS8iIHhtbG5zOmNjPSJodHRwOi8vY3JlYXRpdmVjb21tb25zLm9yZy9ucyMiIHhtbG5zOnJkZj0iaHR0cDovL3d3dy53My5vcmcvMTk5OS8wMi8yMi1yZGYtc3ludGF4LW5zIyIgeG1sbnM6c3ZnPSJodHRwOi8vd3d3LnczLm9yZy8yMDAwL3N2ZyIgeG1sbnM9Imh0dHA6Ly93d3cudzMub3JnLzIwMDAvc3ZnIiB4bWxuczpzb2RpcG9kaT0iaHR0cDovL3NvZGlwb2RpLnNvdXJjZWZvcmdlLm5ldC9EVEQvc29kaXBvZGktMC5kdGQiIHhtbG5zOmlua3NjYXBlPSJodHRwOi8vd3d3Lmlua3NjYXBlLm9yZy9uYW1lc3BhY2VzL2lua3NjYXBlIiB2aWV3Qm94PSItMC41IDAuNSA1MCA1MCIgY2xhc3M9ImZ4cy1wb3J0YWwtc3ZnIiByb2xlPSJwcmVzZW50YXRpb24iIGZvY3VzYWJsZT0iZmFsc2UiIGlkPSJGeFN5bWJvbDAtMGVhIiB2ZXJzaW9uPSIxLjEiIHNvZGlwb2RpOmRvY25hbWU9IlNRTCBEYXRhYmFzZXMuc3ZnIiBpbmtzY2FwZTp2ZXJzaW9uPSIwLjkyLjMgKDI0MDU1NDYsIDIwMTgtMDMtMTEpIj4mI3hhOyAgPG1ldGFkYXRhIGlkPSJtZXRhZGF0YTUxNTAiPiYjeGE7ICAgIDxyZGY6UkRGPiYjeGE7ICAgICAgPGNjOldvcmsgcmRmOmFib3V0PSIiPiYjeGE7ICAgICAgICA8ZGM6Zm9ybWF0PmltYWdlL3N2Zyt4bWw8L2RjOmZvcm1hdD4mI3hhOyAgICAgICAgPGRjOnR5cGUgcmRmOnJlc291cmNlPSJodHRwOi8vcHVybC5vcmcvZGMvZGNtaXR5cGUvU3RpbGxJbWFnZSIvPiYjeGE7ICAgICAgICA8ZGM6dGl0bGUvPiYjeGE7ICAgICAgPC9jYzpXb3JrPiYjeGE7ICAgIDwvcmRmOlJERj4mI3hhOyAgPC9tZXRhZGF0YT4mI3hhOyAgPGRlZnMgaWQ9ImRlZnM1MTQ4Ii8+JiN4YTsgIDxzb2RpcG9kaTpuYW1lZHZpZXcgcGFnZWNvbG9yPSIjZmZmZmZmIiBib3JkZXJjb2xvcj0iIzY2NjY2NiIgYm9yZGVyb3BhY2l0eT0iMSIgb2JqZWN0dG9sZXJhbmNlPSIxMCIgZ3JpZHRvbGVyYW5jZT0iMTAiIGd1aWRldG9sZXJhbmNlPSIxMCIgaW5rc2NhcGU6cGFnZW9wYWNpdHk9IjAiIGlua3NjYXBlOnBhZ2VzaGFkb3c9IjIiIGlua3NjYXBlOndpbmRvdy13aWR0aD0iNjQwIiBpbmtzY2FwZTp3aW5kb3ctaGVpZ2h0PSI0ODAiIGlkPSJuYW1lZHZpZXc1MTQ2IiBzaG93Z3JpZD0iZmFsc2UiIGlua3NjYXBlOnpvb209IjYuMjYiIGlua3NjYXBlOmN4PSIyNSIgaW5rc2NhcGU6Y3k9IjI1IiBpbmtzY2FwZTp3aW5kb3cteD0iMCIgaW5rc2NhcGU6d2luZG93LXk9IjAiIGlua3NjYXBlOndpbmRvdy1tYXhpbWl6ZWQ9IjEiIGlua3NjYXBlOmN1cnJlbnQtbGF5ZXI9IkZ4U3ltYm9sMC0wZWEiLz4mI3hhOyAgPGcgaWQ9Imc1MTQzIj4mI3hhOyAgICA8dGl0bGUgaWQ9InRpdGxlNTEyNyIvPiYjeGE7ICAgIDxwYXRoIGQ9Ik01Ljc1NyA3LjI4OHYzNi4xMTFjMCAzLjc0OSA4LjM5MiA2Ljc4OSAxOC43NDMgNi43ODl2LTQyLjlINS43NTd6IiBjbGFzcz0ibXNwb3J0YWxmeC1zdmctYzE5IiBmaWxsPSIjMDA3MmM2IiBpZD0icGF0aDUxMjkiLz4mI3hhOyAgICA8cGF0aCBkPSJNMjQuMjQzIDUwLjE4N2guMjU3YzEwLjM1MSAwIDE4Ljc0My0zLjAzOCAxOC43NDMtNi43ODhWNy4yODhoLTE5djQyLjg5OXoiIGNsYXNzPSJtc3BvcnRhbGZ4LXN2Zy1jMTkiIGZpbGw9IiMwMDcyYzYiIGlkPSJwYXRoNTEzMSIvPiYjeGE7ICAgIDxwYXRoIG9wYWNpdHk9Ii4xNSIgZD0iTTI0LjI0MyA1MC4xODdoLjI1N2MxMC4zNTEgMCAxOC43NDMtMy4wMzggMTguNzQzLTYuNzg4VjcuMjg4aC0xOXY0Mi44OTl6IiBjbGFzcz0ibXNwb3J0YWxmeC1zdmctYzAxIiBmaWxsPSIjZmZmZmZmIiBpZD0icGF0aDUxMzMiLz4mI3hhOyAgICA8cGF0aCBkPSJNNDMuMjQzIDcuMjg4YzAgMy43NDktOC4zOTIgNi43ODgtMTguNzQzIDYuNzg4UzUuNzU3IDExLjAzNyA1Ljc1NyA3LjI4OCAxNC4xNDkuNSAyNC41LjVzMTguNzQzIDMuMDM5IDE4Ljc0MyA2Ljc4OCIgY2xhc3M9Im1zcG9ydGFsZngtc3ZnLWMwMSIgZmlsbD0iI2ZmZmZmZiIgaWQ9InBhdGg1MTM1Ii8+JiN4YTsgICAgPHBhdGggZD0iTTM5LjQxMSA2Ljg5N2MwIDIuNDc1LTYuNjc2IDQuNDc5LTE0LjkxMSA0LjQ3OVM5LjU4OCA5LjM3MiA5LjU4OCA2Ljg5N2MwLTIuNDc0IDYuNjc3LTQuNDc5IDE0LjkxMi00LjQ3OXMxNC45MTEgMi4wMDUgMTQuOTExIDQuNDc5IiBjbGFzcz0ibXNwb3J0YWxmeC1zdmctYzE0IiBmaWxsPSIjN2ZiYTAwIiBpZD0icGF0aDUxMzciLz4mI3hhOyAgICA8cGF0aCBkPSJNMzYuMjg3IDkuNjM0YzEuOTUyLS43NTcgMy4xMjUtMS43MDUgMy4xMjUtMi43MzUgMC0yLjQ3NS02LjY3Ni00LjQ4LTE0LjkxMi00LjQ4LTguMjM1IDAtMTQuOTExIDIuMDA1LTE0LjkxMSA0LjQ4IDAgMS4wMyAxLjE3MyAxLjk3OCAzLjEyNSAyLjczNUMxNS40NCA4LjU3NiAxOS43IDcuODkzIDI0LjUgNy44OTNjNC44MDEgMCA5LjA1OS42ODMgMTEuNzg3IDEuNzQxIiBjbGFzcz0ibXNwb3J0YWxmeC1zdmctYzEzIiBmaWxsPSIjYjhkNDMyIiBpZD0icGF0aDUxMzkiLz4mI3hhOyAgICA8cGF0aCBkPSJNMTguNTQ3IDMyLjM1NGMwIDEuMTIyLS40MDcgMS45OTEtMS4yMjEgMi42MDctLjgxNC42MTYtMS45MzguOTI0LTMuMzczLjkyNC0xLjIyMSAwLTIuMjQxLS4yMi0zLjA2MS0uNjZ2LTIuNjRjLjk0Ni44MDMgMS45ODggMS4yMDUgMy4xMjYgMS4yMDUuNTUgMCAuOTc1LS4xMSAxLjI3NS0uMzNzLjQ1LS41MTEuNDUtLjg3NWMwLS4zNTctLjE0NC0uNjY4LS40MzMtLjkzMnMtLjg3Ni0uNjA1LTEuNzYxLTEuMDIzYy0xLjgwNC0uODQ2LTIuNzA2LTIuMDAyLTIuNzA2LTMuNDY0IDAtMS4wNjEuMzkzLTEuOTEyIDEuMTgtMi41NTMuNzg2LS42NCAxLjgzMS0uOTYxIDMuMTM0LS45NjEgMS4xNTUgMCAyLjExMS4xNTIgMi44NzEuNDU0djIuNDY2Yy0uNzk3LS41NS0xLjcwNS0uODI1LTIuNzIyLS44MjUtLjUxMSAwLS45MTUuMTA4LTEuMjEyLjMyNWExLjAyNiAxLjAyNiAwIDAgMC0uNDQ1Ljg3YzAgLjM3NC4xMTkuNjgxLjM1OS45Mi4yMzkuMjM5LjczLjUzNSAxLjQ3Mi44ODcgMS4xMDYuNTIzIDEuODkzIDEuMDUzIDIuMzY0IDEuNTkyLjQ2OC41NC43MDMgMS4yMTEuNzAzIDIuMDEzem0xMi43MjctMi42NzJjMCAxLjM5MS0uMzE3IDIuNTk5LS45NDkgMy42MjEtLjYzMyAxLjAyMy0xLjUyMyAxLjc0LTIuNjcyIDIuMTUzbDMuNDMxIDMuMTc2SDI3LjYybC0yLjQ1LTIuNzQ3Yy0xLjA1LS4wMzgtMS45OTgtLjMxNi0yLjg0Mi0uODMzLS44NDQtLjUxNi0xLjQ5Ni0xLjIyNS0xLjk1NS0yLjEyNHMtLjY4OS0xLjkwMi0uNjg5LTMuMDA3YzAtMS4yMjYuMjQ5LTIuMzE5Ljc0Ni0zLjI3OS40OTgtLjk2IDEuMTk3LTEuNjk4IDIuMDk5LTIuMjE1LjkwMi0uNTE2IDEuOTM1LS43NzUgMy4xMDItLjc3NSAxLjA4OCAwIDIuMDYzLjI1IDIuOTI0Ljc1MS44Ni41IDEuNTI4IDEuMjEyIDIuMDA0IDIuMTM2LjQ3Ny45MjQuNzE1IDEuOTcyLjcxNSAzLjE0M3ptLTIuODA0LjE0OWMwLTEuMTk5LS4yNjEtMi4xNDYtLjc4NC0yLjg0MnMtMS4yMzctMS4wNDQtMi4xNDUtMS4wNDRjLS45MjQgMC0xLjY2My4zNDktMi4yMTkgMS4wNDctLjU1NS42OTktLjgzMyAxLjYyOC0uODMzIDIuNzg4IDAgMS4xNTUuMjcyIDIuMDc3LjgxNiAyLjc2Ny41NDUuNjkgMS4yNjcgMS4wMzUgMi4xNjkgMS4wMzUuOTE5IDAgMS42NDctLjMzNCAyLjE4Ni0xLjAwMi41NC0uNjY3LjgxLTEuNTg0LjgxLTIuNzQ5em0xMS44MDMgNS44NDhoLTcuMDQ0VjIzLjg1MWgyLjY2NHY5LjY2N2g0LjM4eiIgY2xhc3M9Im1zcG9ydGFsZngtc3ZnLWMwMSIgZmlsbD0iI2ZmZmZmZiIgaWQ9InBhdGg1MTQxIi8+JiN4YTsgIDwvZz4mI3hhOzwvc3ZnPg==" vertex="1" parent="1">
          <mxGeometry x="1109" y="620" width="50" height="50" as="geometry" />
        </mxCell>
        <mxCell id="0MGRcDcHZkK6c_3Ek1oS-9" value="&lt;font style=&quot;font-size: 18px&quot;&gt;&lt;b&gt;I&lt;font style=&quot;font-size: 18px&quot;&gt;dentity.Ap&lt;/font&gt;i&lt;/b&gt;&lt;/font&gt;" style="verticalLabelPosition=bottom;aspect=fixed;html=1;verticalAlign=top;strokeColor=none;shape=mxgraph.citrix.web_service;fillColor=#66B2FF;gradientColor=#0066CC;fontSize=14;" vertex="1" parent="1">
          <mxGeometry x="1009.82" y="190" width="90.18" height="85.88" as="geometry" />
        </mxCell>
        <mxCell id="0MGRcDcHZkK6c_3Ek1oS-10" value="&lt;b&gt;&lt;font style=&quot;font-size: 17px&quot;&gt;Purchase.Api&lt;/font&gt;&lt;/b&gt;" style="verticalLabelPosition=bottom;aspect=fixed;html=1;verticalAlign=top;strokeColor=none;shape=mxgraph.citrix.web_service;fillColor=#66B2FF;gradientColor=#0066CC;fontSize=14;" vertex="1" parent="1">
          <mxGeometry x="1020" y="600" width="89" height="84.76" as="geometry" />
        </mxCell>
        <mxCell id="0MGRcDcHZkK6c_3Ek1oS-11" value="&lt;font style=&quot;font-size: 17px&quot;&gt;&lt;b&gt;Catalog.Ap&lt;/b&gt;i&lt;/font&gt;" style="verticalLabelPosition=bottom;aspect=fixed;html=1;verticalAlign=top;strokeColor=none;shape=mxgraph.citrix.web_service;fillColor=#66B2FF;gradientColor=#0066CC;fontSize=14;" vertex="1" parent="1">
          <mxGeometry x="1011" y="397.62" width="89" height="84.76" as="geometry" />
        </mxCell>
        <mxCell id="0MGRcDcHZkK6c_3Ek1oS-14" style="edgeStyle=none;rounded=0;html=1;startSize=10;endSize=10;jettySize=auto;orthogonalLoop=1;fontSize=14;endArrow=none;endFill=0;strokeWidth=2;entryX=0.222;entryY=0.895;entryDx=0;entryDy=0;entryPerimeter=0;exitX=0.882;exitY=0.369;exitDx=0;exitDy=0;exitPerimeter=0;" edge="1" parent="1" source="6a7d8f32e03d9370-11" target="0MGRcDcHZkK6c_3Ek1oS-9">
          <mxGeometry relative="1" as="geometry">
            <mxPoint x="730" y="550" as="sourcePoint" />
            <mxPoint x="1030" y="402.33358098068356" as="targetPoint" />
            <Array as="points" />
          </mxGeometry>
        </mxCell>
        <mxCell id="0MGRcDcHZkK6c_3Ek1oS-16" style="edgeStyle=none;rounded=0;html=1;startSize=10;endSize=10;jettySize=auto;orthogonalLoop=1;fontSize=14;endArrow=none;endFill=0;strokeWidth=2;exitX=0.671;exitY=0.618;exitDx=0;exitDy=0;exitPerimeter=0;entryX=0.169;entryY=0.375;entryDx=0;entryDy=0;entryPerimeter=0;" edge="1" parent="1" target="0MGRcDcHZkK6c_3Ek1oS-10">
          <mxGeometry relative="1" as="geometry">
            <mxPoint x="743.9960000000001" y="563.002" as="sourcePoint" />
            <mxPoint x="1030" y="402.33358098068356" as="targetPoint" />
          </mxGeometry>
        </mxCell>
        <mxCell id="0MGRcDcHZkK6c_3Ek1oS-17" style="edgeStyle=none;rounded=0;html=1;startSize=10;endSize=10;jettySize=auto;orthogonalLoop=1;fontSize=14;endArrow=none;endFill=0;strokeWidth=2;entryX=0.149;entryY=0.538;entryDx=0;entryDy=0;entryPerimeter=0;" edge="1" parent="1" target="0MGRcDcHZkK6c_3Ek1oS-11">
          <mxGeometry relative="1" as="geometry">
            <mxPoint x="750" y="395" as="sourcePoint" />
            <mxPoint x="1016" y="223.5402333010993" as="targetPoint" />
          </mxGeometry>
        </mxCell>
        <mxCell id="0MGRcDcHZkK6c_3Ek1oS-18" style="edgeStyle=none;rounded=0;html=1;startSize=10;endSize=10;jettySize=auto;orthogonalLoop=1;fontSize=14;endArrow=none;endFill=0;strokeWidth=2;exitX=0.883;exitY=0.507;exitDx=0;exitDy=0;exitPerimeter=0;entryX=0.048;entryY=0.269;entryDx=0;entryDy=0;entryPerimeter=0;" edge="1" parent="1" source="6a7d8f32e03d9370-12" target="0MGRcDcHZkK6c_3Ek1oS-10">
          <mxGeometry relative="1" as="geometry">
            <mxPoint x="733.9720000000002" y="405.04100000000017" as="sourcePoint" />
            <mxPoint x="1026" y="233.5402333010993" as="targetPoint" />
          </mxGeometry>
        </mxCell>
        <mxCell id="0MGRcDcHZkK6c_3Ek1oS-19" style="edgeStyle=none;rounded=0;html=1;startSize=10;endSize=10;jettySize=auto;orthogonalLoop=1;fontSize=14;endArrow=none;endFill=0;strokeWidth=2;" edge="1" parent="1" target="0MGRcDcHZkK6c_3Ek1oS-10">
          <mxGeometry relative="1" as="geometry">
            <mxPoint x="750" y="660" as="sourcePoint" />
            <mxPoint x="1045.0410000000002" y="577.0249999999996" as="targetPoint" />
          </mxGeometry>
        </mxCell>
        <mxCell id="0MGRcDcHZkK6c_3Ek1oS-20" style="edgeStyle=none;rounded=0;html=1;startSize=10;endSize=10;jettySize=auto;orthogonalLoop=1;fontSize=14;endArrow=none;endFill=0;strokeWidth=2;entryX=0.165;entryY=0.74;entryDx=0;entryDy=0;entryPerimeter=0;exitX=0.846;exitY=0.459;exitDx=0;exitDy=0;exitPerimeter=0;" edge="1" parent="1" source="6a7d8f32e03d9370-8" target="0MGRcDcHZkK6c_3Ek1oS-11">
          <mxGeometry relative="1" as="geometry">
            <mxPoint x="760.0000000000002" y="670" as="sourcePoint" />
            <mxPoint x="1055.0410000000002" y="587.0249999999996" as="targetPoint" />
          </mxGeometry>
        </mxCell>
        <mxCell id="0MGRcDcHZkK6c_3Ek1oS-21" style="edgeStyle=none;rounded=0;html=1;startSize=10;endSize=10;jettySize=auto;orthogonalLoop=1;fontSize=14;endArrow=none;endFill=0;strokeWidth=2;exitX=0.827;exitY=0.25;exitDx=0;exitDy=0;exitPerimeter=0;" edge="1" parent="1" source="6a7d8f32e03d9370-8" target="0MGRcDcHZkK6c_3Ek1oS-9">
          <mxGeometry relative="1" as="geometry">
            <mxPoint x="770.0000000000002" y="680" as="sourcePoint" />
            <mxPoint x="1065.0410000000002" y="597.0249999999996" as="targetPoint" />
          </mxGeometry>
        </mxCell>
        <mxCell id="0MGRcDcHZkK6c_3Ek1oS-27" value="&lt;b&gt;&lt;font style=&quot;font-size: 19px&quot;&gt;Proxy.Layer&lt;/font&gt;&lt;/b&gt;" style="text;html=1;resizable=0;autosize=1;align=center;verticalAlign=middle;points=[];fillColor=none;strokeColor=none;rounded=0;fontSize=17;" vertex="1" parent="1">
          <mxGeometry x="1222.57" y="505" width="120" height="30" as="geometry" />
        </mxCell>
        <mxCell id="0MGRcDcHZkK6c_3Ek1oS-29" style="edgeStyle=none;rounded=0;html=1;startSize=10;endSize=10;jettySize=auto;orthogonalLoop=1;fontSize=14;endArrow=none;endFill=0;strokeWidth=2;entryX=0.636;entryY=0.921;entryDx=0;entryDy=0;entryPerimeter=0;" edge="1" parent="1" target="6a7d8f32e03d9370-15">
          <mxGeometry relative="1" as="geometry">
            <mxPoint x="339" y="210" as="sourcePoint" />
            <mxPoint x="625.8500000000001" y="70.00116792269219" as="targetPoint" />
          </mxGeometry>
        </mxCell>
        <mxCell id="0MGRcDcHZkK6c_3Ek1oS-30" style="edgeStyle=none;rounded=0;html=1;startSize=10;endSize=10;jettySize=auto;orthogonalLoop=1;fontSize=14;endArrow=none;endFill=0;strokeWidth=2;exitX=0.447;exitY=0.169;exitDx=0;exitDy=0;exitPerimeter=0;entryX=0;entryY=0.582;entryDx=0;entryDy=0;entryPerimeter=0;" edge="1" parent="1" target="0MGRcDcHZkK6c_3Ek1oS-9">
          <mxGeometry relative="1" as="geometry">
            <mxPoint x="723.9720000000002" y="395.0409999999997" as="sourcePoint" />
            <mxPoint x="1009.8200000000002" y="306.8511679226922" as="targetPoint" />
          </mxGeometry>
        </mxCell>
        <mxCell id="0MGRcDcHZkK6c_3Ek1oS-32" style="edgeStyle=none;rounded=0;html=1;startSize=10;endSize=10;jettySize=auto;orthogonalLoop=1;fontSize=14;endArrow=none;endFill=0;strokeWidth=2;exitX=0.988;exitY=0.493;exitDx=0;exitDy=0;exitPerimeter=0;" edge="1" parent="1">
          <mxGeometry relative="1" as="geometry">
            <mxPoint x="354.89800000000014" y="139.99750000000012" as="sourcePoint" />
            <mxPoint x="1011" y="231.93" as="targetPoint" />
          </mxGeometry>
        </mxCell>
        <mxCell id="0MGRcDcHZkK6c_3Ek1oS-33" value="Request Token" style="text;html=1;resizable=0;autosize=1;align=center;verticalAlign=middle;points=[];fillColor=none;strokeColor=none;rounded=0;fontSize=17;" vertex="1" parent="1">
          <mxGeometry x="635" y="115" width="130" height="30" as="geometry" />
        </mxCell>
      </root>
    </mxGraphModel>
  </diagram>
</mxfile>
